<svg width="50" height="50" viewBox="0 0 446 423" fill="none" xmlns="http://www.w3.org/2000/svg">
<path d="M273 211C273 238.614 250.614 261 223 261C195.386 261 173 238.614 173 211C173 183.386 195.386 161 223 161C250.614 161 273 183.386 273 211Z" fill="black"/>
<path d="M446 200C446 173.736 440.232 147.728 429.025 123.463C417.818 99.1982 401.392 77.1504 380.685 58.5786C359.977 40.0069 335.394 25.275 308.338 15.2241C281.283 5.17315 252.285 -1.14805e-06 223 0C193.715 1.14805e-06 164.717 5.17315 137.662 15.2241C110.606 25.275 86.0226 40.0069 65.3152 58.5787C44.6077 77.1504 28.1817 99.1982 16.9749 123.463C5.76806 147.728 -2.56016e-06 173.736 0 200L142.1 200C142.1 190.472 144.192 181.037 148.258 172.234C152.323 163.431 158.283 155.432 165.795 148.695C173.307 141.957 182.225 136.613 192.041 132.967C201.856 129.32 212.376 127.444 223 127.444C233.624 127.444 244.144 129.32 253.959 132.967C263.775 136.613 272.693 141.957 280.205 148.695C287.717 155.432 293.677 163.431 297.742 172.234C301.808 181.037 303.9 190.472 303.9 200H446Z" fill="black"/>
<path d="M0 223C0 249.264 5.76807 275.272 16.9749 299.537C28.1817 323.802 44.6077 345.85 65.3152 364.421C86.0227 382.993 110.606 397.725 137.662 407.776C164.717 417.827 193.715 423 223 423C252.285 423 281.283 417.827 308.338 407.776C335.394 397.725 359.977 382.993 380.685 364.421C401.392 345.85 417.818 323.802 429.025 299.537C440.232 275.272 446 249.264 446 223L303.394 223C303.394 232.469 301.315 241.845 297.275 250.592C293.234 259.34 287.313 267.289 279.847 273.984C272.382 280.679 263.519 285.99 253.766 289.614C244.012 293.237 233.558 295.102 223 295.102C212.442 295.102 201.988 293.237 192.234 289.614C182.481 285.99 173.618 280.679 166.153 273.984C158.687 267.289 152.766 259.34 148.726 250.592C144.685 241.845 142.606 232.469 142.606 223H0Z" fill="black"/>
</svg>
